<svg width="182" height="163" viewBox="0 0 182 163" fill="none" xmlns="http://www.w3.org/2000/svg">
<rect width="182" height="163" rx="36" fill="white"/>
<path opacity="0.5" d="M81.0048 124.5H102.505C122.774 124.5 132.911 124.5 139.205 118.2C145.499 111.901 145.505 101.769 145.505 81.5C145.505 79.1242 145.494 72.857 145.483 70.75H38.0048C37.994 72.857 38.0048 79.1242 38.0048 81.5C38.0048 101.769 38.0048 111.906 44.2989 118.2C50.593 124.495 60.741 124.5 81.0048 124.5Z" fill="#8241FF"/>
<path d="M80.9731 38.5H102.527C122.85 38.5 133.014 38.5 139.324 44.4985C143.871 48.8146 145.145 55.0335 145.5 65.375V70.75H38V65.375C38.3547 55.0281 39.6286 48.82 44.1759 44.4985C50.4861 38.5 60.6502 38.5 80.9731 38.5ZM94.4375 98.9688C93.3683 98.9688 92.343 99.3935 91.587 100.149C90.831 100.905 90.4062 101.931 90.4062 103C90.4062 104.069 90.831 105.095 91.587 105.851C92.343 106.607 93.3683 107.031 94.4375 107.031H102.5C103.569 107.031 104.595 106.607 105.351 105.851C106.107 105.095 106.531 104.069 106.531 103C106.531 101.931 106.107 100.905 105.351 100.149C104.595 99.3935 103.569 98.9688 102.5 98.9688H94.4375ZM59.5 98.9688C58.4308 98.9688 57.4055 99.3935 56.6495 100.149C55.8935 100.905 55.4688 101.931 55.4688 103C55.4688 104.069 55.8935 105.095 56.6495 105.851C57.4055 106.607 58.4308 107.031 59.5 107.031H81C82.0692 107.031 83.0945 106.607 83.8505 105.851C84.6065 105.095 85.0312 104.069 85.0312 103C85.0312 101.931 84.6065 100.905 83.8505 100.149C83.0945 99.3935 82.0692 98.9688 81 98.9688H59.5Z" fill="#8241FF"/>
</svg>
